<mxfile host="app.diagrams.net" modified="2024-05-24T09:36:39.299Z" agent="Mozilla/5.0 (Windows NT 10.0; Win64; x64) AppleWebKit/537.36 (KHTML, like Gecko) Chrome/124.0.0.0 Safari/537.36" version="24.4.7" etag="xaKBU2k35WXxC3pEOzuO" type="github">
  <diagram name="Page-1" id="GranaR-ZQ0Meu44khbhH">
    <mxGraphModel>
      <root>
        <mxCell id="0" />
        <mxCell id="1" parent="0" />
      </root>
    </mxGraphModel>
  </diagram>
</mxfile>
